<svg xmlns="http://www.w3.org/2000/svg" viewBox="0 0 512 512">
  <path fill="#fedc3d"
    d="M512 232.932v46.136c0 36.661-10.307 70.904-28.188 100.003h-84.339V232.932L275.692 41.635h45.011C426.355 41.635 512 127.28 512 232.932z"
    data-original="#fedc3d" />
  <path fill="#ffe777"
    d="M466.989 232.932v46.136c0 26.399-5.345 51.549-15.022 74.437l-60.635 14.379-16.615-76.438v-58.514c0-29.786-24.227-54.013-54.013-54.013h-183.42v41.635L28.188 132.929 0 110.277 137.284 0v41.635h138.409c105.651 0 191.296 85.645 191.296 191.297z"
    data-original="#ffe777" />
  <path fill="#fe5f1a" d="M512 401.723 374.716 512l50.638-110.277-50.638-110.277z" data-original="#fe5f1a" />
  <path fill="#fe834d"
    d="m374.716 291.446 92.273 110.277L374.716 512v-41.635h-183.42C85.645 470.365 0 384.72 0 279.068v-46.136c0-36.661 10.308-70.904 28.188-100.003l109.095 87.625v58.514c0 29.786 24.227 54.013 54.013 54.013h183.42v-41.635z"
    data-original="#fe834d" />
  <circle cx="326.802" cy="88.053" r="8.44" fill="#fedc3d" data-original="#fedc3d" />
  <circle cx="360.561" cy="110.558" r="8.44" fill="#fedc3d" data-original="#fedc3d" />
  <circle cx="151.439" cy="423.947" r="8.44" fill="#fe5f1a" data-original="#fe5f1a" />
</svg>