<svg xmlns="http://www.w3.org/2000/svg" viewBox="0 0 63.17 80"><defs><style>.cls-1{fill:#f4f4f4;}.cls-2{fill:#c6c6c6;}.cls-3{fill:#191919;}</style></defs><title>Recurso 1</title><g id="Capa_2" data-name="Capa 2"><g id="Capa_1-2" data-name="Capa 1"><path class="cls-1" d="M9.87,1.59a8.23,8.23,0,0,0-8.2,8.19V70a8.24,8.24,0,0,0,8.2,8.2H53.3A8.24,8.24,0,0,0,61.5,70V18.41L46.61,1.59Z"/><polygon class="cls-2" points="46.61 18.41 61.5 18.41 46.61 1.59 46.61 18.41"/><path class="cls-3" d="M62.91,17.62c-.09-.09-.09-.18-.18-.26L47.75.53h0c-.08-.09-.26-.18-.35-.27s-.09-.08-.18-.08A1.58,1.58,0,0,0,46.61,0H9.87A9.86,9.86,0,0,0,0,9.87V70.13A9.86,9.86,0,0,0,9.87,80H53.3a9.85,9.85,0,0,0,9.87-9.87V18.41c0-.17-.09-.44-.09-.61S63,17.62,62.91,17.62ZM48.19,5.9l9.7,10.84h-9.7ZM59.91,70a6.5,6.5,0,0,1-6.52,6.52H9.87A6.5,6.5,0,0,1,3.35,70V9.78A6.51,6.51,0,0,1,9.87,3.26H44.93V18.41a1.68,1.68,0,0,0,1.68,1.68h13.3Z"/><path class="cls-3" d="M26.34,16.74H11.81a1.67,1.67,0,0,0-1.68,1.67,1.63,1.63,0,0,0,1.68,1.68H26.34a1.68,1.68,0,1,0,0-3.35Z"/><path class="cls-3" d="M26.34,59.91H11.81a1.68,1.68,0,1,0,0,3.35H26.34A1.67,1.67,0,0,0,28,61.59,1.81,1.81,0,0,0,26.34,59.91Z"/><path class="cls-3" d="M50.66,27.67H11.89a1.67,1.67,0,0,0,0,3.34H50.66a1.67,1.67,0,0,0,1.67-1.67A1.79,1.79,0,0,0,50.66,27.67Z"/><path class="cls-3" d="M50.66,35.77H11.89a1.68,1.68,0,0,0,0,3.35H50.66a1.67,1.67,0,0,0,1.67-1.68A1.79,1.79,0,0,0,50.66,35.77Z"/><path class="cls-3" d="M50.66,43.88H11.89a1.67,1.67,0,0,0,0,3.34H50.66a1.67,1.67,0,0,0,1.67-1.67A1.79,1.79,0,0,0,50.66,43.88Z"/><path class="cls-3" d="M50.66,52H11.89a1.68,1.68,0,0,0,0,3.35H50.66a1.67,1.67,0,0,0,1.67-1.67A1.8,1.8,0,0,0,50.66,52Z"/></g></g></svg>