<?xml version="1.0" encoding="iso-8859-1"?>
<!-- Generator: Adobe Illustrator 19.0.0, SVG Export Plug-In . SVG Version: 6.00 Build 0)  -->
<svg version="1.1" id="Capa_1" xmlns="http://www.w3.org/2000/svg" xmlns:xlink="http://www.w3.org/1999/xlink" x="0px" y="0px"
	 viewBox="0 0 363.2 363.2" style="enable-background:new 0 0 363.2 363.2;" xml:space="preserve">
<path style="fill:#F4F4F4;" d="M83,7.2C62.6,7.2,45.8,24,45.8,44.4V318c0,20.4,16.8,37.2,37.2,37.2h197.2
	c20.4,0,37.2-16.8,37.2-37.2V83.6L249.8,7.2H83z"/>
<polygon style="fill:#C6C6C6;" points="249.8,83.6 317.4,83.6 249.8,7.2 "/>
<g>
	<path style="fill:#191919;" d="M323.8,80c-0.4-0.4-0.4-0.8-0.8-1.2L255,2.4l0,0c-0.4-0.4-1.2-0.8-1.6-1.2c-0.4,0-0.4-0.4-0.8-0.4
		c-0.8-0.4-2-0.8-2.8-0.8H83C58.2,0,38.2,20,38.2,44.8v273.6c0,24.8,20,44.8,44.8,44.8h197.2c24.8,0,44.8-20,44.8-44.8V83.6
		c0-0.8-0.4-2-0.4-2.8C324.2,80.4,324.2,80,323.8,80z M257,26.8L301,76h-44V26.8z M310.2,318c0,16.4-13.2,29.6-29.6,29.6H83
		c-16.4,0-29.6-13.2-29.6-29.6V44.4C53.4,28,66.6,14.8,83,14.8h159.2v68.8c0,4,3.2,7.6,7.6,7.6h60.4V318z"/>
	<path style="fill:#191919;" d="M157.8,76h-66c-4,0-7.6,3.2-7.6,7.6s3.2,7.6,7.6,7.6h66c4,0,7.6-3.2,7.6-7.6S161.8,76,157.8,76z"/>
	<path style="fill:#191919;" d="M157.8,272h-66c-4,0-7.6,3.2-7.6,7.6c0,4,3.2,7.6,7.6,7.6h66c4,0,7.6-3.2,7.6-7.6
		C165,275.6,161.8,272,157.8,272z"/>
	<path style="fill:#191919;" d="M268.2,125.6h-176c-4,0-7.6,3.2-7.6,7.6c0,4,3.2,7.6,7.6,7.6h176c4,0,7.6-3.2,7.6-7.6
		C275.4,129.2,272.2,125.6,268.2,125.6z"/>
	<path style="fill:#191919;" d="M268.2,162.4h-176c-4,0-7.6,3.2-7.6,7.6c0,4,3.2,7.6,7.6,7.6h176c4,0,7.6-3.2,7.6-7.6
		C275.4,166,272.2,162.4,268.2,162.4z"/>
	<path style="fill:#191919;" d="M268.2,199.2h-176c-4,0-7.6,3.2-7.6,7.6c0,4,3.2,7.6,7.6,7.6h176c4,0,7.6-3.2,7.6-7.6
		C275.4,202.8,272.2,199.2,268.2,199.2z"/>
	<path style="fill:#191919;" d="M268.2,236h-176c-4,0-7.6,3.2-7.6,7.6c0,4,3.2,7.6,7.6,7.6h176c4,0,7.6-3.2,7.6-7.6
		C275.4,239.6,272.2,236,268.2,236z"/>
</g>
<g>
</g>
<g>
</g>
<g>
</g>
<g>
</g>
<g>
</g>
<g>
</g>
<g>
</g>
<g>
</g>
<g>
</g>
<g>
</g>
<g>
</g>
<g>
</g>
<g>
</g>
<g>
</g>
<g>
</g>
</svg>
